<svg width="42" height="24" viewBox="0 0 42 24" fill="none" xmlns="http://www.w3.org/2000/svg">
<path d="M37.9623 4.15822H35.7562L37.9623 0.953064H41.2924L37.9623 4.15822Z" fill="white"/>
<path d="M34.2161 23.4308V4.99073H42V7.36337H37.0466V12.733H41.2924V15.3138H37.0466V20.9332H42V23.4308H34.2161Z" fill="white"/>
<path d="M25.4746 12.6082V4.94916H22.5608V23.4724H25.4746V15.0641H29.0543V23.4724H32.0098V4.94916H29.0543V12.6082H25.4746Z" fill="white"/>
<path fill-rule="evenodd" clip-rule="evenodd" d="M3.41328 5.03235L0 23.4724H2.74727L3.08028 19.9759H6.61843L7.28444 23.4724H9.94846L6.32706 5.03235H3.41328ZM3.37165 17.6032H6.32706L4.87017 9.36139L3.37165 17.6032Z" fill="white"/>
<path d="M14.2359 17.5065V21.2196H17.6492V17.5065L11.6135 11.8744V6.1563C11.6135 5.55858 12.0981 5.07404 12.6958 5.07404H19.3558C19.9536 5.07404 20.4381 5.55858 20.4381 6.1563V10.9565H17.6908V7.3269H14.2775V10.6645L20.4381 16.5053V22.3902C20.4381 22.9879 19.9536 23.4725 19.3558 23.4725H12.6958C12.0981 23.4725 11.6135 22.9879 11.6135 22.3902V17.5065H14.2359Z" fill="white"/>
</svg>
