<svg width="320" height="320" viewBox="0 0 320 320" fill="none" xmlns="http://www.w3.org/2000/svg">
<path d="M140 60H100V70H140V60Z" fill="#F20422"/>
<path d="M150 60H140V70H150V60Z" fill="yellow"/>
<path d="M200 60H150V70H200V60Z" fill="#F20422"/>
<path d="M210 60H200V70H210V60Z" fill="yellow"/>
<path d="M250 60H210V70H250V60Z" fill="#F20422"/>
<path d="M100 70H90V80H100V70Z" fill="yellow"/>
<path d="M140 70H100V80H140V70Z" fill="#F20422"/>
<path d="M150 70H140V80H150V70Z" fill="yellow"/>
<path d="M200 70H150V80H200V70Z" fill="#F20422"/>
<path d="M210 70H200V80H210V70Z" fill="yellow"/>
<path d="M250 70H210V80H250V70Z" fill="#F20422"/>
<path d="M260 70H250V80H260V70Z" fill="yellow"/>
<path d="M100 80H90V90H100V80Z" fill="yellow"/>
<path d="M140 80H100V90H140V80Z" fill="#F20422"/>
<path d="M150 80H140V90H150V80Z" fill="yellow"/>
<path d="M200 80H150V90H200V80Z" fill="#F20422"/>
<path d="M210 80H200V90H210V80Z" fill="yellow"/>
<path d="M250 80H210V90H250V80Z" fill="#F20422"/>
<path d="M260 80H250V90H260V80Z" fill="yellow"/>
<path d="M100 90H90V100H100V90Z" fill="yellow"/>
<path d="M140 90H100V100H140V90Z" fill="black"/>
<path d="M150 90H140V100H150V90Z" fill="yellow"/>
<path d="M180 90H150V100H180V90Z" fill="black"/>
<path d="M190 90H180V100H190V90Z" fill="#F20422"/>
<path d="M200 90H190V100H200V90Z" fill="black"/>
<path d="M210 90H200V100H210V90Z" fill="yellow"/>
<path d="M220 90H210V100H220V90Z" fill="#F20422"/>
<path d="M230 90H220V100H230V90Z" fill="black"/>
<path d="M240 90H230V100H240V90Z" fill="#F20422"/>
<path d="M250 90H240V100H250V90Z" fill="black"/>
<path d="M260 90H250V100H260V90Z" fill="yellow"/>
<path d="M100 100H90V110H100V100Z" fill="yellow"/>
<path d="M140 100H100V110H140V100Z" fill="#F20422"/>
<path d="M150 100H140V110H150V100Z" fill="yellow"/>
<path d="M200 100H150V110H200V100Z" fill="#F20422"/>
<path d="M210 100H200V110H210V100Z" fill="yellow"/>
<path d="M250 100H210V110H250V100Z" fill="#F20422"/>
<path d="M260 100H250V110H260V100Z" fill="yellow"/>
<path d="M100 110H90V120H100V110Z" fill="yellow"/>
<path d="M140 110H100V120H140V110Z" fill="#F20422"/>
<path d="M150 110H140V120H150V110Z" fill="yellow"/>
<path d="M200 110H150V120H200V110Z" fill="#F20422"/>
<path d="M210 110H200V120H210V110Z" fill="yellow"/>
<path d="M250 110H210V120H250V110Z" fill="#F20422"/>
<path d="M260 110H250V120H260V110Z" fill="yellow"/>
<path d="M100 120H90V130H100V120Z" fill="yellow"/>
<path d="M140 120H100V130H140V120Z" fill="#F20422"/>
<path d="M150 120H140V130H150V120Z" fill="yellow"/>
<path d="M200 120H150V130H200V120Z" fill="#F20422"/>
<path d="M210 120H200V130H210V120Z" fill="yellow"/>
<path d="M250 120H210V130H250V120Z" fill="#F20422"/>
<path d="M260 120H250V130H260V120Z" fill="yellow"/>
<path d="M260 130H90V140H260V130Z" fill="yellow"/>
<path d="M260 140H90V150H260V140Z" fill="black"/>
<path d="M260 150H90V160H260V150Z" fill="yellow"/>
<path d="M150 160H90V170H150V160Z" fill="#F20422"/>
<path d="M200 160H150V170H200V160Z" fill="#769CA9"/>
<path d="M260 160H200V170H260V160Z" fill="#F20422"/>
<path d="M110 170H90V180H110V170Z" fill="#F20422"/>
<path d="M120 170H110V180H120V170Z" fill="yellow"/>
<path d="M150 170H120V180H150V170Z" fill="#F20422"/>
<path d="M160 170H150V180H160V170Z" fill="#769CA9"/>
<path d="M170 170H160V180H170V170Z" fill="white"/>
<path d="M180 170H170V180H180V170Z" fill="black"/>
<path d="M190 170H180V180H190V170Z" fill="white"/>
<path d="M200 170H190V180H200V170Z" fill="#769CA9"/>
<path d="M230 170H200V180H230V170Z" fill="#F20422"/>
<path d="M240 170H230V180H240V170Z" fill="yellow"/>
<path d="M260 170H240V180H260V170Z" fill="#F20422"/>
<path d="M100 180H90V190H100V180Z" fill="#F20422"/>
<path d="M130 180H100V190H130V180Z" fill="yellow"/>
<path d="M150 180H130V190H150V180Z" fill="#F20422"/>
<path d="M200 180H150V190H200V180Z" fill="#769CA9"/>
<path d="M220 180H200V190H220V180Z" fill="#F20422"/>
<path d="M250 180H220V190H250V180Z" fill="yellow"/>
<path d="M260 180H250V190H260V180Z" fill="#F20422"/>
<path d="M110 190H90V200H110V190Z" fill="#F20422"/>
<path d="M120 190H110V200H120V190Z" fill="yellow"/>
<path d="M230 190H120V200H230V190Z" fill="#F20422"/>
<path d="M240 190H230V200H240V190Z" fill="yellow"/>
<path d="M260 190H240V200H260V190Z" fill="#F20422"/>
<path d="M260 200H90V210H260V200Z" fill="#F20422"/>
<path d="M260 210H90V220H260V210Z" fill="#F20422"/>
</svg>
