<svg width="320" height="320" viewBox="0 0 320 320" fill="none" xmlns="http://www.w3.org/2000/svg">
<path d="M140 40H90V50H140V40Z" fill="#00BA23"/>
<path d="M230 40H180V50H230V40Z" fill="#00BA23"/>
<path d="M160 50H70V60H160V50Z" fill="#00BA23"/>
<path d="M250 50H170V60H250V50Z" fill="#00BA23"/>
<path d="M120 60H60V70H120V60Z" fill="#00BA23"/>
<path d="M140 60H120V70H140V60Z" fill="white"/>
<path d="M200 60H140V70H200V60Z" fill="#00BA23"/>
<path d="M220 60H200V70H220V60Z" fill="white"/>
<path d="M260 60H220V70H260V60Z" fill="#00BA23"/>
<path d="M140 70H50V80H140V70Z" fill="#00BA23"/>
<path d="M150 70H140V80H150V70Z" fill="white"/>
<path d="M200 70H150V80H200V70Z" fill="#00BA23"/>
<path d="M220 70H200V80H220V70Z" fill="white"/>
<path d="M230 70H220V80H230V70Z" fill="#00BA23"/>
<path d="M240 70H230V80H240V70Z" fill="white"/>
<path d="M270 70H240V80H270V70Z" fill="#00BA23"/>
<path d="M240 80H50V90H240V80Z" fill="#00BA23"/>
<path d="M250 80H240V90H250V80Z" fill="white"/>
<path d="M270 80H250V90H270V80Z" fill="#00BA23"/>
<path d="M240 90H40V100H240V90Z" fill="#00BA23"/>
<path d="M250 90H240V100H250V90Z" fill="white"/>
<path d="M280 90H250V100H280V90Z" fill="#00BA23"/>
<path d="M280 100H40V110H280V100Z" fill="#00BA23"/>
<path d="M280 110H40V120H280V110Z" fill="#00BA23"/>
<path d="M280 120H40V130H280V120Z" fill="#00BA23"/>
<path d="M270 130H50V140H270V130Z" fill="#00BA23"/>
<path d="M270 140H50V150H270V140Z" fill="#00BA23"/>
<path d="M260 150H60V160H260V150Z" fill="#00BA23"/>
<path d="M260 160H60V170H260V160Z" fill="#00BA23"/>
<path d="M250 170H70V180H250V170Z" fill="#00BA23"/>
<path d="M150 180H80V190H150V180Z" fill="#00BA23"/>
<path d="M170 180H150V190H170V180Z" fill="white"/>
<path d="M180 180H170V190H180V180Z" fill="#FFEF16"/>
<path d="M240 180H180V190H240V180Z" fill="#00BA23"/>
<path d="M230 190H90V200H230V190Z" fill="#00BA23"/>
<path d="M220 200H100V210H220V200Z" fill="#00BA23"/>
<path d="M210 210H110V220H210V210Z" fill="#00BA23"/>
<path d="M190 220H130V230H190V220Z" fill="#00BA23"/>
<path d="M170 230H150V240H170V230Z" fill="#00BA23"/>
</svg>
