<svg width="52" height="58" viewBox="0 0 52 58" fill="none" xmlns="http://www.w3.org/2000/svg">
<path d="M18.1664 39.8129C17.994 39.2136 17.7518 38.684 17.4399 38.2243C17.1279 37.7563 16.7462 37.3623 16.2946 37.0421C15.8513 36.7137 15.3423 36.4633 14.7676 36.2909C14.2012 36.1185 13.5731 36.0323 12.8835 36.0323C11.5946 36.0323 10.4616 36.3525 9.4847 36.9928C8.51596 37.6332 7.76067 38.565 7.21883 39.7882C6.67699 41.0033 6.40607 42.4892 6.40607 44.2461C6.40607 46.003 6.67289 47.4971 7.20652 48.7286C7.74014 49.96 8.49543 50.9 9.47238 51.5486C10.4493 52.1889 11.6028 52.5091 12.9328 52.5091C14.1396 52.5091 15.1699 52.2957 16.0237 51.8688C16.8857 51.4337 17.5425 50.822 17.994 50.0339C18.4538 49.2458 18.6836 48.314 18.6836 47.2385L19.7673 47.3986H13.2653V43.3841H23.8188V46.5612C23.8188 48.7778 23.3508 50.6825 22.4149 52.2751C21.479 53.8596 20.1901 55.0829 18.5482 55.9449C16.9062 56.7987 15.0262 57.2256 12.9081 57.2256C10.5437 57.2256 8.4667 56.7043 6.67699 55.6616C4.88728 54.6108 3.49164 53.1207 2.49006 51.1915C1.49669 49.254 1 46.9553 1 44.2953C1 42.2511 1.29555 40.4286 1.88664 38.8277C2.48595 37.2186 3.32334 35.8558 4.39881 34.7393C5.47427 33.6228 6.72625 32.7731 8.15473 32.1902C9.58322 31.6073 11.1307 31.3158 12.7973 31.3158C14.2258 31.3158 15.5558 31.5252 16.7872 31.9439C18.0187 32.3544 19.1105 32.9373 20.0629 33.6926C21.0234 34.4478 21.8074 35.3468 22.4149 36.3894C23.0225 37.4238 23.4124 38.565 23.5848 39.8129H18.1664Z" fill="white"/>
<path d="M51 44.2707C51 47.021 50.4787 49.3607 49.4361 51.29C48.4016 53.2193 46.9896 54.6929 45.1999 55.7109C43.4184 56.7207 41.4152 57.2256 39.1904 57.2256C36.9491 57.2256 34.9378 56.7166 33.1563 55.6986C31.3748 54.6806 29.9668 53.2069 28.9324 51.2777C27.898 49.3484 27.3808 47.0127 27.3808 44.2707C27.3808 41.5205 27.898 39.1807 28.9324 37.2514C29.9668 35.3222 31.3748 33.8526 33.1563 32.8428C34.9378 31.8248 36.9491 31.3158 39.1904 31.3158C41.4152 31.3158 43.4184 31.8248 45.1999 32.8428C46.9896 33.8526 48.4016 35.3222 49.4361 37.2514C50.4787 39.1807 51 41.5205 51 44.2707ZM45.5939 44.2707C45.5939 42.4892 45.3271 40.9868 44.7935 39.7636C44.2681 38.5404 43.5251 37.6127 42.5646 36.9805C41.604 36.3484 40.4793 36.0323 39.1904 36.0323C37.9015 36.0323 36.7767 36.3484 35.8162 36.9805C34.8557 37.6127 34.1086 38.5404 33.575 39.7636C33.0495 40.9868 32.7868 42.4892 32.7868 44.2707C32.7868 46.0522 33.0495 47.5546 33.575 48.7778C34.1086 50.0011 34.8557 50.9288 35.8162 51.5609C36.7767 52.1931 37.9015 52.5091 39.1904 52.5091C40.4793 52.5091 41.604 52.1931 42.5646 51.5609C43.5251 50.9288 44.2681 50.0011 44.7935 48.7778C45.3271 47.5546 45.5939 46.0522 45.5939 44.2707Z" fill="white"/>
<path d="M18.1664 39.8129C17.994 39.2136 17.7518 38.684 17.4399 38.2243C17.1279 37.7563 16.7462 37.3623 16.2946 37.0421C15.8513 36.7137 15.3423 36.4633 14.7676 36.2909C14.2012 36.1185 13.5731 36.0323 12.8835 36.0323C11.5946 36.0323 10.4616 36.3525 9.4847 36.9928C8.51596 37.6332 7.76067 38.565 7.21883 39.7882C6.67699 41.0033 6.40607 42.4892 6.40607 44.2461C6.40607 46.003 6.67289 47.4971 7.20652 48.7286C7.74014 49.96 8.49543 50.9 9.47238 51.5486C10.4493 52.1889 11.6028 52.5091 12.9328 52.5091C14.1396 52.5091 15.1699 52.2957 16.0237 51.8688C16.8857 51.4337 17.5425 50.822 17.994 50.0339C18.4538 49.2458 18.6836 48.314 18.6836 47.2385L19.7673 47.3986H13.2653V43.3841H23.8188V46.5612C23.8188 48.7778 23.3508 50.6825 22.4149 52.2751C21.479 53.8596 20.1901 55.0829 18.5482 55.9449C16.9062 56.7987 15.0262 57.2256 12.9081 57.2256C10.5437 57.2256 8.4667 56.7043 6.67699 55.6616C4.88728 54.6108 3.49164 53.1207 2.49006 51.1915C1.49669 49.254 1 46.9553 1 44.2953C1 42.2511 1.29555 40.4286 1.88664 38.8277C2.48595 37.2186 3.32334 35.8558 4.39881 34.7393C5.47427 33.6228 6.72625 32.7731 8.15473 32.1902C9.58322 31.6073 11.1307 31.3158 12.7973 31.3158C14.2258 31.3158 15.5558 31.5252 16.7872 31.9439C18.0187 32.3544 19.1105 32.9373 20.0629 33.6926C21.0234 34.4478 21.8074 35.3468 22.4149 36.3894C23.0225 37.4238 23.4124 38.565 23.5848 39.8129H18.1664Z" stroke="black" stroke-width="1.4449"/>
<path d="M51 44.2707C51 47.021 50.4787 49.3607 49.4361 51.29C48.4016 53.2193 46.9896 54.6929 45.1999 55.7109C43.4184 56.7207 41.4152 57.2256 39.1904 57.2256C36.9491 57.2256 34.9378 56.7166 33.1563 55.6986C31.3748 54.6806 29.9668 53.2069 28.9324 51.2777C27.898 49.3484 27.3808 47.0127 27.3808 44.2707C27.3808 41.5205 27.898 39.1807 28.9324 37.2514C29.9668 35.3222 31.3748 33.8526 33.1563 32.8428C34.9378 31.8248 36.9491 31.3158 39.1904 31.3158C41.4152 31.3158 43.4184 31.8248 45.1999 32.8428C46.9896 33.8526 48.4016 35.3222 49.4361 37.2514C50.4787 39.1807 51 41.5205 51 44.2707ZM45.5939 44.2707C45.5939 42.4892 45.3271 40.9868 44.7935 39.7636C44.2681 38.5404 43.5251 37.6127 42.5646 36.9805C41.604 36.3484 40.4793 36.0323 39.1904 36.0323C37.9015 36.0323 36.7767 36.3484 35.8162 36.9805C34.8557 37.6127 34.1086 38.5404 33.575 39.7636C33.0495 40.9868 32.7868 42.4892 32.7868 44.2707C32.7868 46.0522 33.0495 47.5546 33.575 48.7778C34.1086 50.0011 34.8557 50.9288 35.8162 51.5609C36.7767 52.1931 37.9015 52.5091 39.1904 52.5091C40.4793 52.5091 41.604 52.1931 42.5646 51.5609C43.5251 50.9288 44.2681 50.0011 44.7935 48.7778C45.3271 47.5546 45.5939 46.0522 45.5939 44.2707Z" stroke="black" stroke-width="1.4449"/>
<path d="M14.2917 1.07882C13.8091 1.02627 13.3151 1 12.8096 1C10.5684 1 8.55701 1.509 6.77551 2.527C4.99401 3.53679 3.58605 5.00632 2.55163 6.9356C1.51721 8.86487 1 11.2046 1 13.9549C1 16.6969 1.51721 19.0325 2.55163 20.9618C3.58605 22.8911 4.99401 24.3647 6.77551 25.3827C7.00309 25.5128 7.23442 25.6345 7.46951 25.748L8.84016 20.7917C8.16066 20.1963 7.612 19.4197 7.1942 18.462C6.66878 17.2387 6.40607 15.7364 6.40607 13.9549C6.40607 12.1734 6.66878 10.671 7.1942 9.44775C7.72783 8.22451 8.47491 7.29682 9.43544 6.66468C10.396 6.03253 11.5207 5.71646 12.8096 5.71646C12.8763 5.71646 12.9426 5.71731 13.0085 5.719L14.2917 1.07882Z" fill="white"/>
<path d="M12.0637 22.1561C12.3059 22.1809 12.5545 22.1933 12.8096 22.1933C14.0985 22.1933 15.2233 21.8772 16.1838 21.2451C17.1443 20.6129 17.8873 19.6852 18.4127 18.462C18.9464 17.2387 19.2132 15.7364 19.2132 13.9549C19.2132 12.1734 18.9464 10.671 18.4127 9.44775C17.9128 8.28376 17.2158 7.38738 16.3218 6.75861L17.6526 1.94664C18.0514 2.11708 18.4403 2.31053 18.8191 2.527C20.6088 3.53679 22.0209 5.00632 23.0553 6.9356C24.0979 8.86487 24.6192 11.2046 24.6192 13.9549C24.6192 16.7051 24.0979 19.0449 23.0553 20.9741C22.0209 22.9034 20.6088 24.377 18.8191 25.395C17.0376 26.4048 15.0344 26.9097 12.8096 26.9097C12.1142 26.9097 11.4409 26.8607 10.7897 26.7627L12.0637 22.1561Z" fill="white"/>
<path d="M37.4694 9.94033L32.3835 1.34481H26.3371L34.0829 13.9549L26.1893 26.5649H32.2973L37.4694 17.9571H37.6665L42.8386 26.5649H48.9712L41.1022 13.9549L48.7988 1.34481H42.777L37.6665 9.94033H37.4694Z" fill="white"/>
<path d="M14.2917 1.07882C13.8091 1.02627 13.3151 1 12.8096 1C10.5684 1 8.55701 1.509 6.77551 2.527C4.99401 3.53679 3.58605 5.00632 2.55163 6.9356C1.51721 8.86487 1 11.2046 1 13.9549C1 16.6969 1.51721 19.0325 2.55163 20.9618C3.58605 22.8911 4.99401 24.3647 6.77551 25.3827C7.00309 25.5128 7.23442 25.6345 7.46951 25.748L8.84016 20.7917C8.16066 20.1963 7.612 19.4197 7.1942 18.462C6.66878 17.2387 6.40607 15.7364 6.40607 13.9549C6.40607 12.1734 6.66878 10.671 7.1942 9.44775C7.72783 8.22451 8.47491 7.29682 9.43544 6.66468C10.396 6.03253 11.5207 5.71646 12.8096 5.71646C12.8763 5.71646 12.9426 5.71731 13.0085 5.719L14.2917 1.07882Z" stroke="black" stroke-width="1.4449"/>
<path d="M12.0637 22.1561C12.3059 22.1809 12.5545 22.1933 12.8096 22.1933C14.0985 22.1933 15.2233 21.8772 16.1838 21.2451C17.1443 20.6129 17.8873 19.6852 18.4127 18.462C18.9464 17.2387 19.2132 15.7364 19.2132 13.9549C19.2132 12.1734 18.9464 10.671 18.4127 9.44775C17.9128 8.28376 17.2158 7.38738 16.3218 6.75861L17.6526 1.94664C18.0514 2.11708 18.4403 2.31053 18.8191 2.527C20.6088 3.53679 22.0209 5.00632 23.0553 6.9356C24.0979 8.86487 24.6192 11.2046 24.6192 13.9549C24.6192 16.7051 24.0979 19.0449 23.0553 20.9741C22.0209 22.9034 20.6088 24.377 18.8191 25.395C17.0376 26.4048 15.0344 26.9097 12.8096 26.9097C12.1142 26.9097 11.4409 26.8607 10.7897 26.7627L12.0637 22.1561Z" stroke="black" stroke-width="1.4449"/>
<path d="M37.4694 9.94033L32.3835 1.34481H26.3371L34.0829 13.9549L26.1893 26.5649H32.2973L37.4694 17.9571H37.6665L42.8386 26.5649H48.9712L41.1022 13.9549L48.7988 1.34481H42.777L37.6665 9.94033H37.4694Z" stroke="black" stroke-width="1.4449"/>
</svg>
