<svg width="203" height="225" viewBox="0 0 203 225" fill="none" xmlns="http://www.w3.org/2000/svg">
<path d="M70.0091 154.028C69.316 151.618 68.3424 149.49 67.0883 147.642C65.8342 145.76 64.2996 144.176 62.4844 142.889C60.7022 141.569 58.6561 140.562 56.3459 139.869C54.0687 139.176 51.5439 138.83 48.7717 138.83C43.5902 138.83 39.0358 140.117 35.1085 142.691C31.2141 145.265 28.1779 149.011 25.9997 153.929C23.8215 158.813 22.7324 164.787 22.7324 171.849C22.7324 178.912 23.805 184.918 25.9502 189.869C28.0954 194.819 31.1316 198.598 35.059 201.205C38.9863 203.779 43.6232 205.067 48.9697 205.067C53.8211 205.067 57.963 204.209 61.3953 202.492C64.8606 200.743 67.5008 198.284 69.316 195.116C71.1642 191.948 72.0882 188.202 72.0882 183.879L76.4446 184.522H50.3063V168.384H92.7315V181.156C92.7315 190.067 90.8504 197.723 87.088 204.126C83.3257 210.496 78.1443 215.413 71.5437 218.878C64.9431 222.311 57.3854 224.027 48.8707 224.027C39.3659 224.027 31.0161 221.931 23.8215 217.74C16.6269 213.515 11.0164 207.525 6.99003 199.77C2.99668 191.981 1 182.74 1 172.047C1 163.829 2.1881 156.503 4.56431 150.067C6.97352 143.599 10.3398 138.12 14.6632 133.632C18.9866 129.143 24.0195 125.728 29.762 123.384C35.5045 121.041 41.7256 119.87 48.4252 119.87C54.1677 119.87 59.5141 120.711 64.4646 122.394C69.415 124.044 73.8044 126.388 77.6327 129.424C81.4941 132.46 84.6458 136.074 87.088 140.265C89.5303 144.424 91.0979 149.011 91.791 154.028H70.0091Z" fill="black"/>
<path d="M202 171.948C202 183.004 199.904 192.41 195.713 200.166C191.555 207.921 185.878 213.845 178.683 217.938C171.522 221.997 163.469 224.027 154.525 224.027C145.516 224.027 137.43 221.981 130.268 217.888C123.107 213.796 117.447 207.872 113.288 200.116C109.13 192.36 107.051 182.971 107.051 171.948C107.051 160.892 109.13 151.486 113.288 143.731C117.447 135.975 123.107 130.068 130.268 126.008C137.43 121.916 145.516 119.87 154.525 119.87C163.469 119.87 171.522 121.916 178.683 126.008C185.878 130.068 191.555 135.975 195.713 143.731C199.904 151.486 202 160.892 202 171.948ZM180.268 171.948C180.268 164.787 179.195 158.747 177.05 153.83C174.938 148.912 171.951 145.183 168.09 142.642C164.228 140.1 159.707 138.83 154.525 138.83C149.344 138.83 144.822 140.1 140.961 142.642C137.1 145.183 134.097 148.912 131.951 153.83C129.839 158.747 128.783 164.787 128.783 171.948C128.783 179.11 129.839 185.149 131.951 190.067C134.097 194.984 137.1 198.714 140.961 201.255C144.822 203.796 149.344 205.067 154.525 205.067C159.707 205.067 164.228 203.796 168.09 201.255C171.951 198.714 174.938 194.984 177.05 190.067C179.195 185.149 180.268 179.11 180.268 171.948Z" fill="black"/>
<path d="M70.0091 154.028C69.316 151.618 68.3424 149.49 67.0883 147.642C65.8342 145.76 64.2996 144.176 62.4844 142.889C60.7022 141.569 58.6561 140.562 56.3459 139.869C54.0687 139.176 51.5439 138.83 48.7717 138.83C43.5902 138.83 39.0358 140.117 35.1085 142.691C31.2141 145.265 28.1779 149.011 25.9997 153.929C23.8215 158.813 22.7324 164.787 22.7324 171.849C22.7324 178.912 23.805 184.918 25.9502 189.869C28.0954 194.819 31.1316 198.598 35.059 201.205C38.9863 203.779 43.6232 205.067 48.9697 205.067C53.8211 205.067 57.963 204.209 61.3953 202.492C64.8606 200.743 67.5008 198.284 69.316 195.116C71.1642 191.948 72.0882 188.202 72.0882 183.879L76.4446 184.522H50.3063V168.384H92.7315V181.156C92.7315 190.067 90.8504 197.723 87.088 204.126C83.3257 210.496 78.1443 215.413 71.5437 218.878C64.9431 222.311 57.3854 224.027 48.8707 224.027C39.3659 224.027 31.0161 221.931 23.8215 217.74C16.6269 213.515 11.0164 207.525 6.99003 199.77C2.99668 191.981 1 182.74 1 172.047C1 163.829 2.1881 156.503 4.56431 150.067C6.97352 143.599 10.3398 138.12 14.6632 133.632C18.9866 129.143 24.0195 125.728 29.762 123.384C35.5045 121.041 41.7256 119.87 48.4252 119.87C54.1677 119.87 59.5141 120.711 64.4646 122.394C69.415 124.044 73.8044 126.388 77.6327 129.424C81.4941 132.46 84.6458 136.074 87.088 140.265C89.5303 144.424 91.0979 149.011 91.791 154.028H70.0091Z" stroke="black"/>
<path d="M202 171.948C202 183.004 199.904 192.41 195.713 200.166C191.555 207.921 185.878 213.845 178.683 217.938C171.522 221.997 163.469 224.027 154.525 224.027C145.516 224.027 137.43 221.981 130.268 217.888C123.107 213.796 117.447 207.872 113.288 200.116C109.13 192.36 107.051 182.971 107.051 171.948C107.051 160.892 109.13 151.486 113.288 143.731C117.447 135.975 123.107 130.068 130.268 126.008C137.43 121.916 145.516 119.87 154.525 119.87C163.469 119.87 171.522 121.916 178.683 126.008C185.878 130.068 191.555 135.975 195.713 143.731C199.904 151.486 202 160.892 202 171.948ZM180.268 171.948C180.268 164.787 179.195 158.747 177.05 153.83C174.938 148.912 171.951 145.183 168.09 142.642C164.228 140.1 159.707 138.83 154.525 138.83C149.344 138.83 144.822 140.1 140.961 142.642C137.1 145.183 134.097 148.912 131.951 153.83C129.839 158.747 128.783 164.787 128.783 171.948C128.783 179.11 129.839 185.149 131.951 190.067C134.097 194.984 137.1 198.714 140.961 201.255C144.822 203.796 149.344 205.067 154.525 205.067C159.707 205.067 164.228 203.796 168.09 201.255C171.951 198.714 174.938 194.984 177.05 190.067C179.195 185.149 180.268 179.11 180.268 171.948Z" stroke="black"/>
<path d="M54.4326 1.31685C52.4926 1.10562 50.5066 1 48.4747 1C39.4649 1 31.3792 3.04618 24.2175 7.13854C17.0559 11.1979 11.3959 17.1054 7.23755 24.8611C3.07918 32.6168 1 42.0226 1 53.0786C1 64.1015 3.07918 73.4908 7.23755 81.2465C11.3959 89.0022 17.0559 94.9262 24.2175 99.0186C25.1324 99.5414 26.0624 100.031 27.0074 100.487L32.5174 80.5625C29.7858 78.169 27.5803 75.0472 25.9007 71.1971C23.7885 66.2797 22.7324 60.2402 22.7324 53.0786C22.7324 45.9169 23.7885 39.8774 25.9007 34.96C28.0459 30.0425 31.0491 26.3132 34.9105 23.772C38.7718 21.2308 43.2932 19.9602 48.4747 19.9602C48.7429 19.9602 49.0093 19.9636 49.274 19.9704L54.4326 1.31685Z" fill="black"/>
<path d="M45.476 86.0477C46.4497 86.1472 47.4492 86.197 48.4747 86.197C53.6561 86.197 58.1775 84.9263 62.0388 82.3851C65.9002 79.8439 68.8869 76.1146 70.9991 71.1971C73.1443 66.2797 74.2169 60.2402 74.2169 53.0786C74.2169 45.9169 73.1443 39.8774 70.9991 34.96C68.9892 30.2807 66.1874 26.6772 62.5937 24.1496L67.9433 4.80548C69.5468 5.49064 71.1099 6.26833 72.6328 7.13854C79.8274 11.1979 85.5039 17.1054 89.6623 24.8611C93.8536 32.6168 95.9493 42.0226 95.9493 53.0786C95.9493 64.1345 93.8536 73.5403 89.6623 81.296C85.5039 89.0517 79.8274 94.9757 72.6328 99.0681C65.4711 103.127 57.4184 105.157 48.4747 105.157C45.6791 105.157 42.9724 104.96 40.3547 104.566L45.476 86.0477Z" fill="black"/>
<path d="M147.607 36.9401L127.162 2.38612H102.855L133.993 53.0786L102.261 103.771H126.815L147.607 69.1675H148.399L169.191 103.771H193.844L162.211 53.0786L193.151 2.38612H168.943L148.399 36.9401H147.607Z" fill="black"/>
<path d="M54.4326 1.31685C52.4926 1.10562 50.5066 1 48.4747 1C39.4649 1 31.3792 3.04618 24.2175 7.13854C17.0559 11.1979 11.3959 17.1054 7.23755 24.8611C3.07918 32.6168 1 42.0226 1 53.0786C1 64.1015 3.07918 73.4908 7.23755 81.2465C11.3959 89.0022 17.0559 94.9262 24.2175 99.0186C25.1324 99.5414 26.0624 100.031 27.0074 100.487L32.5174 80.5625C29.7858 78.169 27.5803 75.0472 25.9007 71.1971C23.7885 66.2797 22.7324 60.2402 22.7324 53.0786C22.7324 45.9169 23.7885 39.8774 25.9007 34.96C28.0459 30.0425 31.0491 26.3132 34.9105 23.772C38.7718 21.2308 43.2932 19.9602 48.4747 19.9602C48.7429 19.9602 49.0093 19.9636 49.274 19.9704L54.4326 1.31685Z" stroke="black"/>
<path d="M45.476 86.0477C46.4497 86.1472 47.4492 86.197 48.4747 86.197C53.6561 86.197 58.1775 84.9263 62.0388 82.3851C65.9002 79.8439 68.8869 76.1146 70.9991 71.1971C73.1443 66.2797 74.2169 60.2402 74.2169 53.0786C74.2169 45.9169 73.1443 39.8774 70.9991 34.96C68.9892 30.2807 66.1874 26.6772 62.5937 24.1496L67.9433 4.80548C69.5468 5.49064 71.1099 6.26833 72.6328 7.13854C79.8274 11.1979 85.5039 17.1054 89.6623 24.8611C93.8536 32.6168 95.9493 42.0226 95.9493 53.0786C95.9493 64.1345 93.8536 73.5403 89.6623 81.296C85.5039 89.0517 79.8274 94.9757 72.6328 99.0681C65.4711 103.127 57.4184 105.157 48.4747 105.157C45.6791 105.157 42.9724 104.96 40.3547 104.566L45.476 86.0477Z" stroke="black"/>
<path d="M147.607 36.9401L127.162 2.38612H102.855L133.993 53.0786L102.261 103.771H126.815L147.607 69.1675H148.399L169.191 103.771H193.844L162.211 53.0786L193.151 2.38612H168.943L148.399 36.9401H147.607Z" stroke="black"/>
<path d="M157.812 145.188H119.938V151.5H157.812V145.188Z" fill="#F3322C"/>
<path d="M202 145.188H164.125V151.5H202V145.188Z" fill="#F3322C"/>
<path d="M126.25 151.5H119.938V157.812H126.25V151.5Z" fill="#F3322C"/>
<path d="M138.875 151.5H126.25V157.812H138.875V151.5Z" fill="white"/>
<path d="M151.5 151.5H138.875V157.812H151.5V151.5Z" fill="black"/>
<path d="M157.812 151.5H151.5V157.812H157.812V151.5Z" fill="#F3322C"/>
<path d="M170.438 151.5H164.125V157.812H170.438V151.5Z" fill="#F3322C"/>
<path d="M183.062 151.5H170.437V157.812H183.062V151.5Z" fill="white"/>
<path d="M195.688 151.5H183.062V157.812H195.688V151.5Z" fill="black"/>
<path d="M202 151.5H195.688V157.812H202V151.5Z" fill="#F3322C"/>
<path d="M126.25 157.812H101V164.125H126.25V157.812Z" fill="#F3322C"/>
<path d="M138.875 157.812H126.25V164.125H138.875V157.812Z" fill="white"/>
<path d="M151.5 157.812H138.875V164.125H151.5V157.812Z" fill="black"/>
<path d="M170.437 157.812H151.5V164.125H170.437V157.812Z" fill="#F3322C"/>
<path d="M183.062 157.812H170.437V164.125H183.062V157.812Z" fill="white"/>
<path d="M195.688 157.812H183.062V164.125H195.688V157.812Z" fill="black"/>
<path d="M202 157.812H195.688V164.125H202V157.812Z" fill="#F3322C"/>
<path d="M107.312 164.125H101V170.438H107.312V164.125Z" fill="#F3322C"/>
<path d="M126.25 164.125H119.938V170.438H126.25V164.125Z" fill="#F3322C"/>
<path d="M138.875 164.125H126.25V170.438H138.875V164.125Z" fill="white"/>
<path d="M151.5 164.125H138.875V170.438H151.5V164.125Z" fill="black"/>
<path d="M157.812 164.125H151.5V170.438H157.812V164.125Z" fill="#F3322C"/>
<path d="M170.438 164.125H164.125V170.438H170.438V164.125Z" fill="#F3322C"/>
<path d="M183.062 164.125H170.437V170.438H183.062V164.125Z" fill="white"/>
<path d="M195.688 164.125H183.062V170.438H195.688V164.125Z" fill="black"/>
<path d="M202 164.125H195.688V170.438H202V164.125Z" fill="#F3322C"/>
<path d="M126.25 170.438H119.938V176.75H126.25V170.438Z" fill="#F3322C"/>
<path d="M138.875 170.438H126.25V176.75H138.875V170.438Z" fill="white"/>
<path d="M151.5 170.438H138.875V176.75H151.5V170.438Z" fill="black"/>
<path d="M157.812 170.438H151.5V176.75H157.812V170.438Z" fill="#F3322C"/>
<path d="M170.438 170.438H164.125V176.75H170.438V170.438Z" fill="#F3322C"/>
<path d="M183.062 170.438H170.437V176.75H183.062V170.438Z" fill="white"/>
<path d="M195.688 170.438H183.062V176.75H195.688V170.438Z" fill="black"/>
<path d="M202 170.438H195.688V176.75H202V170.438Z" fill="#F3322C"/>
<path d="M157.812 176.75H119.938V183.062H157.812V176.75Z" fill="#F3322C"/>
<path d="M202 176.75H164.125V183.062H202V176.75Z" fill="#F3322C"/>
</svg>
