<svg width="103" height="29" viewBox="0 0 103 29" fill="none" xmlns="http://www.w3.org/2000/svg">
<path d="M69.1801 10.3434C69.0078 9.7443 68.7657 9.215 68.4538 8.75545C68.142 8.28769 67.7604 7.89379 67.3091 7.57374C66.8659 7.24549 66.3571 6.9952 65.7827 6.82287C65.2165 6.65053 64.5887 6.56437 63.8994 6.56437C62.611 6.56437 61.4785 6.88441 60.502 7.5245C59.5336 8.16459 58.7786 9.09601 58.237 10.3187C57.6954 11.5333 57.4246 13.0186 57.4246 14.7748C57.4246 16.5309 57.6913 18.0245 58.2247 19.2554C58.7581 20.4863 59.5131 21.426 60.4896 22.0743C61.4662 22.7143 62.6192 23.0344 63.9486 23.0344C65.1549 23.0344 66.1848 22.821 67.0383 22.3943C67.8999 21.9594 68.5564 21.348 69.0078 20.5602C69.4673 19.7724 69.6971 18.841 69.6971 17.766L70.7803 17.926H64.2809V13.9131H74.8301V17.0889C74.8301 19.3046 74.3624 21.2085 73.4269 22.8005C72.4913 24.3843 71.203 25.6071 69.5617 26.4687C67.9204 27.3222 66.0412 27.7489 63.924 27.7489C61.5606 27.7489 59.4844 27.2278 57.6954 26.1856C55.9064 25.1352 54.5114 23.6458 53.5102 21.7173C52.5172 19.7806 52.0208 17.4828 52.0208 14.824C52.0208 12.7806 52.3162 10.9588 52.907 9.35861C53.5061 7.75018 54.3431 6.38793 55.4182 5.27188C56.4932 4.15582 57.7446 3.30647 59.1725 2.72382C60.6004 2.14118 62.1473 1.84985 63.8132 1.84985C65.2411 1.84985 66.5705 2.05911 67.8014 2.47764C69.0324 2.88795 70.1238 3.4706 71.0758 4.22557C72.0359 4.98055 72.8196 5.87914 73.4269 6.92134C74.0341 7.95533 74.4239 9.09601 74.5963 10.3434H69.1801Z" fill="white"/>
<path d="M102 14.7994C102 17.5485 101.479 19.8873 100.437 21.8158C99.4028 23.7442 97.9914 25.2173 96.2024 26.2348C94.4216 27.2442 92.4193 27.7489 90.1954 27.7489C87.9551 27.7489 85.9445 27.2401 84.1638 26.2225C82.383 25.205 80.9756 23.7319 79.9416 21.8034C78.9076 19.875 78.3906 17.5403 78.3906 14.7994C78.3906 12.0503 78.9076 9.71148 79.9416 7.783C80.9756 5.85452 82.383 4.3856 84.1638 3.37622C85.9445 2.35864 87.9551 1.84985 90.1954 1.84985C92.4193 1.84985 94.4216 2.35864 96.2024 3.37622C97.9914 4.3856 99.4028 5.85452 100.437 7.783C101.479 9.71148 102 12.0503 102 14.7994ZM96.5963 14.7994C96.5963 13.0186 96.3296 11.5169 95.7962 10.2941C95.271 9.07139 94.5283 8.14408 93.5682 7.51219C92.608 6.88031 91.4838 6.56437 90.1954 6.56437C88.907 6.56437 87.7827 6.88031 86.8226 7.51219C85.8625 8.14408 85.1157 9.07139 84.5823 10.2941C84.0571 11.5169 83.7945 13.0186 83.7945 14.7994C83.7945 16.5801 84.0571 18.0819 84.5823 19.3046C85.1157 20.5274 85.8625 21.4547 86.8226 22.0866C87.7827 22.7184 88.907 23.0344 90.1954 23.0344C91.4838 23.0344 92.608 22.7184 93.5682 22.0866C94.5283 21.4547 95.271 20.5274 95.7962 19.3046C96.3296 18.0819 96.5963 16.5801 96.5963 14.7994Z" fill="white"/>
<path d="M69.1801 10.3434C69.0078 9.7443 68.7657 9.215 68.4538 8.75545C68.142 8.28769 67.7604 7.89379 67.3091 7.57374C66.8659 7.24549 66.3571 6.9952 65.7827 6.82287C65.2165 6.65053 64.5887 6.56437 63.8994 6.56437C62.611 6.56437 61.4785 6.88441 60.502 7.5245C59.5336 8.16459 58.7786 9.09601 58.237 10.3187C57.6954 11.5333 57.4246 13.0186 57.4246 14.7748C57.4246 16.5309 57.6913 18.0245 58.2247 19.2554C58.7581 20.4863 59.5131 21.426 60.4896 22.0743C61.4662 22.7143 62.6192 23.0344 63.9486 23.0344C65.1549 23.0344 66.1848 22.821 67.0383 22.3943C67.8999 21.9594 68.5564 21.348 69.0078 20.5602C69.4673 19.7724 69.6971 18.841 69.6971 17.766L70.7803 17.926H64.2809V13.9131H74.8301V17.0889C74.8301 19.3046 74.3624 21.2085 73.4269 22.8005C72.4913 24.3843 71.203 25.6071 69.5617 26.4687C67.9204 27.3222 66.0412 27.7489 63.924 27.7489C61.5606 27.7489 59.4844 27.2278 57.6954 26.1856C55.9064 25.1352 54.5114 23.6458 53.5102 21.7173C52.5172 19.7806 52.0208 17.4828 52.0208 14.824C52.0208 12.7806 52.3162 10.9588 52.907 9.35861C53.5061 7.75018 54.3431 6.38793 55.4182 5.27188C56.4932 4.15582 57.7446 3.30647 59.1725 2.72382C60.6004 2.14118 62.1473 1.84985 63.8132 1.84985C65.2411 1.84985 66.5705 2.05911 67.8014 2.47764C69.0324 2.88795 70.1238 3.4706 71.0758 4.22557C72.0359 4.98055 72.8196 5.87914 73.4269 6.92134C74.0341 7.95533 74.4239 9.09601 74.5963 10.3434H69.1801Z" stroke="black" stroke-width="1.44431"/>
<path d="M102 14.7994C102 17.5485 101.479 19.8873 100.437 21.8158C99.4028 23.7442 97.9914 25.2173 96.2024 26.2348C94.4216 27.2442 92.4193 27.7489 90.1954 27.7489C87.9551 27.7489 85.9445 27.2401 84.1638 26.2225C82.383 25.205 80.9756 23.7319 79.9416 21.8034C78.9076 19.875 78.3906 17.5403 78.3906 14.7994C78.3906 12.0503 78.9076 9.71148 79.9416 7.783C80.9756 5.85452 82.383 4.3856 84.1638 3.37622C85.9445 2.35864 87.9551 1.84985 90.1954 1.84985C92.4193 1.84985 94.4216 2.35864 96.2024 3.37622C97.9914 4.3856 99.4028 5.85452 100.437 7.783C101.479 9.71148 102 12.0503 102 14.7994ZM96.5963 14.7994C96.5963 13.0186 96.3296 11.5169 95.7962 10.2941C95.271 9.07139 94.5283 8.14408 93.5682 7.51219C92.608 6.88031 91.4838 6.56437 90.1954 6.56437C88.907 6.56437 87.7827 6.88031 86.8226 7.51219C85.8625 8.14408 85.1157 9.07139 84.5823 10.2941C84.0571 11.5169 83.7945 13.0186 83.7945 14.7994C83.7945 16.5801 84.0571 18.0819 84.5823 19.3046C85.1157 20.5274 85.8625 21.4547 86.8226 22.0866C87.7827 22.7184 88.907 23.0344 90.1954 23.0344C91.4838 23.0344 92.608 22.7184 93.5682 22.0866C94.5283 21.4547 95.271 20.5274 95.7962 19.3046C96.3296 18.0819 96.5963 16.5801 96.5963 14.7994Z" stroke="black" stroke-width="1.44431"/>
<path d="M14.2862 1.54375C13.8038 1.49123 13.31 1.46497 12.8047 1.46497C10.5644 1.46497 8.55389 1.97376 6.77312 2.99134C4.99236 4.00071 3.58498 5.46964 2.55099 7.39811C1.517 9.32659 1 11.6654 1 14.4145C1 17.1554 1.517 19.4901 2.55099 21.4186C3.58498 23.347 4.99236 24.8201 6.77312 25.8376C7.00061 25.9676 7.23185 26.0893 7.46684 26.2027L8.83692 21.2485C8.1577 20.6533 7.60928 19.8771 7.19164 18.9197C6.66644 17.697 6.40384 16.1953 6.40384 14.4145C6.40384 12.6337 6.66644 11.132 7.19164 9.90924C7.72505 8.6865 8.47183 7.75919 9.43196 7.12731C10.3921 6.49542 11.5164 6.17948 12.8047 6.17948C12.8714 6.17948 12.9377 6.18033 13.0035 6.18202L14.2862 1.54375Z" fill="white"/>
<path d="M12.0591 22.6124C12.3012 22.6371 12.5498 22.6495 12.8047 22.6495C14.0931 22.6495 15.2174 22.3336 16.1775 21.7017C17.1377 21.0698 17.8803 20.1425 18.4055 18.9197C18.9389 17.697 19.2057 16.1953 19.2057 14.4145C19.2057 12.6337 18.9389 11.132 18.4055 9.90924C17.9058 8.74572 17.2091 7.84971 16.3155 7.2212L17.6457 2.41121C18.0444 2.58158 18.4331 2.77496 18.8117 2.99134C20.6007 4.00071 22.0122 5.46964 23.0462 7.39811C24.0884 9.32659 24.6095 11.6654 24.6095 14.4145C24.6095 17.1636 24.0884 19.5024 23.0462 21.4309C22.0122 23.3593 20.6007 24.8324 18.8117 25.85C17.031 26.8593 15.0287 27.364 12.8047 27.364C12.1096 27.364 11.4366 27.315 10.7857 27.2171L12.0591 22.6124Z" fill="white"/>
<path d="M37.4544 10.4016L32.3706 1.80963H26.3267L34.0693 14.4145L26.1789 27.0194H32.2844L37.4544 18.4151H37.6513L42.8213 27.0194H48.9514L41.0857 14.4145L48.7791 1.80963H42.7598L37.6513 10.4016H37.4544Z" fill="white"/>
<path d="M14.2862 1.54375C13.8038 1.49123 13.31 1.46497 12.8047 1.46497C10.5644 1.46497 8.55389 1.97376 6.77312 2.99134C4.99236 4.00071 3.58498 5.46964 2.55099 7.39811C1.517 9.32659 1 11.6654 1 14.4145C1 17.1554 1.517 19.4901 2.55099 21.4186C3.58498 23.347 4.99236 24.8201 6.77312 25.8376C7.00061 25.9676 7.23185 26.0893 7.46684 26.2027L8.83692 21.2485C8.1577 20.6533 7.60928 19.8771 7.19164 18.9197C6.66644 17.697 6.40384 16.1953 6.40384 14.4145C6.40384 12.6337 6.66644 11.132 7.19164 9.90924C7.72505 8.6865 8.47183 7.75919 9.43196 7.12731C10.3921 6.49542 11.5164 6.17948 12.8047 6.17948C12.8714 6.17948 12.9377 6.18033 13.0035 6.18202L14.2862 1.54375Z" stroke="black" stroke-width="1.44431"/>
<path d="M12.0591 22.6124C12.3012 22.6371 12.5498 22.6495 12.8047 22.6495C14.0931 22.6495 15.2174 22.3336 16.1775 21.7017C17.1377 21.0698 17.8803 20.1425 18.4055 18.9197C18.9389 17.697 19.2057 16.1953 19.2057 14.4145C19.2057 12.6337 18.9389 11.132 18.4055 9.90924C17.9058 8.74572 17.2091 7.84971 16.3155 7.2212L17.6457 2.41121C18.0444 2.58158 18.4331 2.77496 18.8117 2.99134C20.6007 4.00071 22.0122 5.46964 23.0462 7.39811C24.0884 9.32659 24.6095 11.6654 24.6095 14.4145C24.6095 17.1636 24.0884 19.5024 23.0462 21.4309C22.0122 23.3593 20.6007 24.8324 18.8117 25.85C17.031 26.8593 15.0287 27.364 12.8047 27.364C12.1096 27.364 11.4366 27.315 10.7857 27.2171L12.0591 22.6124Z" stroke="black" stroke-width="1.44431"/>
<path d="M37.4544 10.4016L32.3706 1.80963H26.3267L34.0693 14.4145L26.1789 27.0194H32.2844L37.4544 18.4151H37.6513L42.8213 27.0194H48.9514L41.0857 14.4145L48.7791 1.80963H42.7598L37.6513 10.4016H37.4544Z" stroke="black" stroke-width="1.44431"/>
</svg>
