<svg width="29" height="29" viewBox="0 0 29 29" fill="none" xmlns="http://www.w3.org/2000/svg">
<g clip-path="url(#clip0_11_440)">
<path fill-rule="evenodd" clip-rule="evenodd" d="M15.7212 18.4869C15.5017 18.7062 15.2041 18.8295 14.8938 18.8295C14.5835 18.8295 14.2859 18.7062 14.0665 18.4869L7.44661 11.867C7.33484 11.759 7.24569 11.6299 7.18436 11.4871C7.12303 11.3444 7.09075 11.1908 7.0894 11.0354C7.08805 10.88 7.11766 10.726 7.1765 10.5821C7.23534 10.4383 7.32223 10.3077 7.4321 10.1978C7.54198 10.0879 7.67263 10.001 7.81645 9.94218C7.96026 9.88334 8.11436 9.85374 8.26974 9.85509C8.42512 9.85644 8.57867 9.88872 8.72144 9.95005C8.86421 10.0114 8.99334 10.1005 9.10129 10.2123L14.8938 16.0048L20.6864 10.2123C20.9071 9.99913 21.2027 9.88118 21.5095 9.88385C21.8163 9.88651 22.1099 10.0096 22.3268 10.2265C22.5438 10.4435 22.6669 10.737 22.6695 11.0438C22.6722 11.3507 22.5542 11.6463 22.3411 11.867L15.7212 18.4869Z" fill="white"/>
</g>
<defs>
<clipPath id="clip0_11_440">
<rect width="28.0851" height="28.0851" fill="white" transform="translate(0.851074 0.106323)"/>
</clipPath>
</defs>
</svg>
