<svg width="320" height="320" viewBox="0 0 320 320" fill="none" xmlns="http://www.w3.org/2000/svg">
<path d="M190 10H130V20H190V10Z" fill="#FF0E0E"/>
<path d="M210 20H110V30H210V20Z" fill="#FF0E0E"/>
<path d="M220 30H100V40H220V30Z" fill="#FF0E0E"/>
<path d="M230 40H90V50H230V40Z" fill="#FF0E0E"/>
<path d="M230 50H90V60H230V50Z" fill="#FF0E0E"/>
<path d="M240 60H80V70H240V60Z" fill="#FF0E0E"/>
<path d="M90 70H80V80H90V70Z" fill="#FF0E0E"/>
<path d="M150 70H90V80H150V70Z" fill="#FFEF16"/>
<path d="M170 70H150V80H170V70Z" fill="#FF0E0E"/>
<path d="M230 70H170V80H230V70Z" fill="#FF1AD2"/>
<path d="M240 70H230V80H240V70Z" fill="#FF0E0E"/>
<path d="M80 80H70V90H80V80Z" fill="#0ADC4D"/>
<path d="M150 80H80V90H150V80Z" fill="#FFEF16"/>
<path d="M170 80H150V90H170V80Z" fill="white"/>
<path d="M240 80H170V90H240V80Z" fill="#FF1AD2"/>
<path d="M250 80H240V90H250V80Z" fill="#1929F4"/>
<path d="M80 90H60V100H80V90Z" fill="#0ADC4D"/>
<path d="M140 90H80V100H140V90Z" fill="#FFEF16"/>
<path d="M180 90H140V100H180V90Z" fill="white"/>
<path d="M240 90H180V100H240V90Z" fill="#FF1AD2"/>
<path d="M260 90H240V100H260V90Z" fill="#1929F4"/>
<path d="M80 100H50V110H80V100Z" fill="#0ADC4D"/>
<path d="M130 100H80V110H130V100Z" fill="#FFEF16"/>
<path d="M190 100H130V110H190V100Z" fill="white"/>
<path d="M240 100H190V110H240V100Z" fill="#FF1AD2"/>
<path d="M270 100H240V110H270V100Z" fill="#1929F4"/>
<path d="M80 110H50V120H80V110Z" fill="#0ADC4D"/>
<path d="M130 110H80V120H130V110Z" fill="#FFEF16"/>
<path d="M190 110H130V120H190V110Z" fill="white"/>
<path d="M240 110H190V120H240V110Z" fill="#FF1AD2"/>
<path d="M270 110H240V120H270V110Z" fill="#1929F4"/>
<path d="M90 120H40V130H90V120Z" fill="#0ADC4D"/>
<path d="M120 120H90V130H120V120Z" fill="#FFEF16"/>
<path d="M200 120H120V130H200V120Z" fill="white"/>
<path d="M230 120H200V130H230V120Z" fill="#FF1AD2"/>
<path d="M280 120H230V130H280V120Z" fill="#1929F4"/>
<path d="M90 130H40V140H90V130Z" fill="#0ADC4D"/>
<path d="M120 130H90V140H120V130Z" fill="#FFEF16"/>
<path d="M200 130H120V140H200V130Z" fill="white"/>
<path d="M230 130H200V140H230V130Z" fill="#FF1AD2"/>
<path d="M280 130H230V140H280V130Z" fill="#1929F4"/>
<path d="M100 140H40V150H100V140Z" fill="#0ADC4D"/>
<path d="M120 140H100V150H120V140Z" fill="#FFEF16"/>
<path d="M200 140H120V150H200V140Z" fill="white"/>
<path d="M220 140H200V150H220V140Z" fill="#FF1AD2"/>
<path d="M280 140H220V150H280V140Z" fill="#1929F4"/>
<path d="M110 150H40V160H110V150Z" fill="#0ADC4D"/>
<path d="M120 150H110V160H120V150Z" fill="#FFEF16"/>
<path d="M200 150H120V160H200V150Z" fill="white"/>
<path d="M210 150H200V160H210V150Z" fill="#FF1AD2"/>
<path d="M280 150H210V160H280V150Z" fill="#1929F4"/>
<path d="M120 160H40V170H120V160Z" fill="#0ADC4D"/>
<path d="M130 160H120V170H130V160Z" fill="#00FCFF"/>
<path d="M190 160H130V170H190V160Z" fill="white"/>
<path d="M200 160H190V170H200V160Z" fill="#00FCFF"/>
<path d="M280 160H200V170H280V160Z" fill="#1929F4"/>
<path d="M120 170H40V180H120V170Z" fill="#0ADC4D"/>
<path d="M200 170H120V180H200V170Z" fill="#00FCFF"/>
<path d="M280 170H200V180H280V170Z" fill="#1929F4"/>
<path d="M130 180H50V190H130V180Z" fill="#0ADC4D"/>
<path d="M190 180H130V190H190V180Z" fill="#00FCFF"/>
<path d="M270 180H190V190H270V180Z" fill="#1929F4"/>
<path d="M130 190H50V200H130V190Z" fill="#0ADC4D"/>
<path d="M190 190H130V200H190V190Z" fill="#00FCFF"/>
<path d="M270 190H190V200H270V190Z" fill="#1929F4"/>
<path d="M140 200H60V210H140V200Z" fill="#0ADC4D"/>
<path d="M180 200H140V210H180V200Z" fill="#00FCFF"/>
<path d="M260 200H180V210H260V200Z" fill="#1929F4"/>
<path d="M150 210H70V220H150V210Z" fill="#0ADC4D"/>
<path d="M170 210H150V220H170V210Z" fill="#00FCFF"/>
<path d="M250 210H170V220H250V210Z" fill="#1929F4"/>
<path d="M150 220H90V230H150V220Z" fill="#0ADC4D"/>
<path d="M230 220H170V230H230V220Z" fill="#1929F4"/>
</svg>
