<svg width="64" height="12" viewBox="0 0 64 12" fill="none" xmlns="http://www.w3.org/2000/svg">
<path d="M2.51026 11.7769V11.8564H2.58974H10.5385H10.6179V11.7769V10.2666H12.1282H12.2077V10.1871V7.00766V6.92817H12.1282H10.6179V5.41791V5.33843H10.5385H4.25897V2.31791H8.86923V3.82817V3.90766H8.94872H12.1282H12.2077V3.82817V2.23842V2.15894H12.1282H10.6179V0.648682V0.569194H10.5385H2.58974H2.51026V0.648682V2.15894H1H0.920513V2.23842V5.41791V5.4974H1H2.51026V7.00766V7.08714H2.58974H8.86923V10.1077H4.25897V8.5974V8.51791H4.17949H1H0.920513V8.5974V10.1871V10.2666H1H2.51026V11.7769ZM15.2282 11.7769V11.8564H15.3077H23.2564H23.3359V11.7769V10.2666H24.8462H24.9256V10.1871V5.41791V5.33843H24.8462H23.3359V3.82817V3.74868H23.2564H15.3077H15.2282V3.82817V5.33843H13.7179H13.6385V5.41791V10.1871V10.2666H13.7179H15.2282V11.7769ZM27.9462 11.7769V11.8564H28.0256H37.5641H37.6436V11.7769V10.1871V10.1077H37.5641H29.6949V5.4974H37.5641H37.6436V5.41791V3.82817V3.74868H37.5641H28.0256H27.9462V3.82817V5.33843H26.4359H26.3564V5.41791V10.1871V10.2666H26.4359H27.9462V11.7769ZM39.0744 11.7769V11.8564H39.1538H42.3333H42.4128V11.7769V5.4974H47.0231V11.7769V11.8564H47.1026H50.282H50.3615V11.7769V5.41791V5.33843H50.282H48.7718V3.82817V3.74868H48.6923H42.4128V0.648682V0.569194H42.3333H39.1538H39.0744V0.648682V11.7769ZM56.5615 2.23842V2.31791H56.641H59.8205H59.9V2.23842V0.648682V0.569194H59.8205H56.641H56.5615V0.648682V2.23842ZM53.382 11.7769V11.8564H53.4615H63H63.0795V11.7769V10.1871V10.1077H63H59.9V3.82817V3.74868H59.8205H55.0513H54.9718V3.82817V5.41791V5.4974H55.0513H56.5615V10.1077H53.4615H53.382V10.1871V11.7769ZM21.5872 5.4974V10.1077H16.9769V5.4974H21.5872Z" fill="white" stroke="black" stroke-width="0.158974"/>
</svg>
